<svg width="32" height="32" viewBox="0 0 32 32" fill="none" xmlns="http://www.w3.org/2000/svg">
<circle cx="16.1328" cy="15.8984" r="4" fill="#EDF0F4"/>
<path d="M16.1246 13.5L16.0928 13.6081V16.7442L16.1246 16.7759L17.5803 15.9155L16.1246 13.5Z" fill="#343434"/>
<path d="M16.1252 13.5L14.6694 15.9155L16.1252 16.7759V15.2538V13.5Z" fill="#8C8C8C"/>
<path d="M16.1249 17.0501L16.1069 17.072V18.1891L16.1249 18.2415L17.5815 16.1901L16.1249 17.0501Z" fill="#3C3C3B"/>
<path d="M16.1252 18.2415V17.0501L14.6694 16.1901L16.1252 18.2415Z" fill="#8C8C8C"/>
<path d="M16.125 16.7747L17.5807 15.9143L16.125 15.2526V16.7747Z" fill="#141414"/>
<path d="M14.6694 15.9143L16.1252 16.7747V15.2526L14.6694 15.9143Z" fill="#393939"/>
<circle cx="16" cy="16" r="16" fill="#E84142"/>
<path fill-rule="evenodd" clip-rule="evenodd" d="M16.9573 4.74936C16.403 3.79188 15.5211 3.79188 14.9668 4.74936L4.90065 22.4753C4.34632 23.4454 4.79986 24.2139 5.90852 24.2139H10.9605C11.981 24.1509 12.9006 23.6092 13.455 22.7525L19.54 12.2076C19.981 11.3005 19.981 10.2297 19.54 9.32259L17.7258 6.13519L16.9573 4.74936ZM23.648 16.416C23.0937 15.4585 22.1992 15.4585 21.6448 16.416L18.1299 22.4759C17.5881 23.4333 18.0417 24.2145 19.1377 24.2145H26.0921C27.2007 24.2145 27.6543 23.4333 27.1 22.4759L23.648 16.416Z" fill="white"/>
</svg>
