<svg width="92" height="67" viewBox="0 0 92 67" fill="none" xmlns="http://www.w3.org/2000/svg">
<path d="M64.1406 48.7799C63.489 47.5387 62.6721 46.3916 61.7122 45.3699C60.3836 43.9733 58.8918 42.7417 57.2689 41.7016C59.1031 39.8563 60.5149 37.6348 61.407 35.1907C62.299 32.7465 62.6499 30.1379 62.4356 27.5449C62.4356 25.365 62.0045 23.2066 61.1672 21.1939C60.3299 19.1813 59.1028 17.354 57.5566 15.8174C56.0103 14.2808 54.1755 13.0651 52.1577 12.2403C50.1398 11.4156 47.9788 10.998 45.7989 11.0116C41.1084 10.8426 36.5396 12.5251 33.0789 15.6958C29.6182 18.8664 27.5434 23.2709 27.3022 27.9583C27.2267 30.9441 28.0155 33.8883 29.5738 36.4364C31.132 38.9846 33.3933 41.0283 36.0856 42.3216C33.8377 43.5093 31.7096 44.9107 29.7306 46.5066C27.8303 48.1017 26.1916 49.9845 24.8739 52.0866C23.6247 53.8993 22.7563 55.9466 22.3211 58.1046C21.886 60.2626 21.8931 62.4865 22.3422 64.6416C22.4062 65.0722 22.6374 65.4601 22.9856 65.7213C23.3338 65.9824 23.771 66.0957 24.2022 66.0366C24.4205 66.0052 24.6303 65.9305 24.8192 65.8168C25.0082 65.7031 25.1725 65.5528 25.3025 65.3747C25.4325 65.1966 25.5255 64.9942 25.5761 64.7796C25.6268 64.565 25.6339 64.3424 25.5972 64.1249C25.6173 61.6529 26.3727 59.2428 27.7672 57.2016C29.064 55.186 30.552 53.3001 32.2106 51.5699C34.5994 48.8177 37.1348 46.1962 39.8056 43.7166C41.4134 44.1131 43.0587 44.3383 44.7139 44.3883C45.1028 44.4026 45.4821 44.265 45.7714 44.0047C46.0607 43.7443 46.2373 43.3816 46.2639 42.9933C46.2854 42.8018 46.267 42.6079 46.2098 42.4238C46.1527 42.2398 46.058 42.0696 45.9318 41.924C45.8056 41.7783 45.6506 41.6604 45.4765 41.5777C45.3025 41.495 45.1132 41.4492 44.9206 41.4433C35.5172 40.6166 31.3839 34.3133 31.8489 28.2166C32.2271 24.8542 33.8893 21.7679 36.4886 19.6018C39.088 17.4357 42.4235 16.3573 45.7989 16.5916C48.8734 16.5362 51.8446 17.7012 54.0621 19.8315C56.2796 21.9619 57.5627 24.884 57.6306 27.9583C57.9467 29.5123 57.9527 31.1136 57.6482 32.6699C57.3436 34.2263 56.7346 35.7072 55.856 37.0275C54.9774 38.3477 53.8466 39.4814 52.5285 40.3634C51.2105 41.2453 49.7312 41.8581 48.1756 42.1666C47.732 42.2186 47.3265 42.4426 47.0463 42.7904C46.7661 43.1382 46.6336 43.5821 46.6772 44.0266C46.7027 44.2444 46.7713 44.455 46.8789 44.646C46.9866 44.8371 47.1312 45.0048 47.3043 45.1394C47.4774 45.274 47.6755 45.3729 47.8872 45.4302C48.0989 45.4875 48.3198 45.5022 48.5372 45.4733C50.34 45.278 52.0914 44.7526 53.7039 43.9233C55.0016 45.4044 56.1929 46.9756 57.2689 48.6249L59.0256 51.5183C59.5939 52.5516 60.1622 53.5333 60.6789 54.5666C61.9985 57.045 63.0881 59.6392 63.9339 62.3166C64.0161 62.762 64.2719 63.1564 64.6449 63.4132C65.0179 63.6699 65.4777 63.768 65.923 63.6858C66.3684 63.6036 66.7628 63.3478 67.0196 62.9748C67.2764 62.6017 67.3744 62.1419 67.2922 61.6966C67.1095 58.593 66.5544 55.5227 65.6389 52.5516C65.2758 51.2444 64.7735 49.9799 64.1406 48.7799Z" fill="white"/>
<path d="M33.474 34.1954C32.9564 33.2034 32.3075 32.2865 31.545 31.47C30.4897 30.3538 29.3047 29.3694 28.0155 28.5381C29.4725 27.0632 30.594 25.2878 31.3026 23.3343C32.0111 21.3808 32.2899 19.2959 32.1196 17.2235C32.1196 15.4812 31.7772 13.7561 31.1121 12.1475C30.447 10.5388 29.4723 9.07843 28.244 7.8503C27.0158 6.62216 25.5583 5.65054 23.9555 4.99134C22.3526 4.33214 20.636 3.99838 18.9044 4.00927C15.1786 3.87422 11.5494 5.21892 8.80043 7.75306C6.05148 10.2872 4.40331 13.8075 4.21177 17.5538C4.15179 19.9403 4.77838 22.2933 6.01614 24.3299C7.2539 26.3665 9.05013 27.9999 11.1887 29.0336C9.40318 29.9829 7.71269 31.103 6.14069 32.3785C4.63128 33.6534 3.32957 35.1582 2.28285 36.8383C1.29057 38.2871 0.600738 39.9234 0.255078 41.6481C-0.0905811 43.3729 -0.0848788 45.1503 0.27184 46.8728C0.322659 47.2169 0.506296 47.527 0.782901 47.7357C1.05951 47.9444 1.40676 48.035 1.74931 47.9877C1.9227 47.9627 2.08934 47.9029 2.23944 47.8121C2.38953 47.7212 2.52005 47.6011 2.62331 47.4587C2.72656 47.3163 2.80046 47.1546 2.84067 46.9831C2.88088 46.8115 2.88657 46.6336 2.85742 46.4599C2.87333 44.4841 3.47338 42.5578 4.58114 40.9264C5.61121 39.3154 6.79318 37.8081 8.11066 36.4253C10.0082 34.2257 12.0222 32.1304 14.1437 30.1486C15.4208 30.4655 16.7277 30.6454 18.0426 30.6854C18.3515 30.6969 18.6528 30.5869 18.8826 30.3788C19.1124 30.1707 19.2527 29.8808 19.2738 29.5705C19.2909 29.4174 19.2763 29.2624 19.2308 29.1154C19.1854 28.9683 19.1102 28.8322 19.01 28.7158C18.9097 28.5994 18.7866 28.5052 18.6484 28.4391C18.5101 28.373 18.3597 28.3364 18.2067 28.3316C10.7373 27.6709 7.454 22.633 7.82337 17.7603C8.12378 15.0729 9.44417 12.6062 11.5089 10.8749C13.5737 9.1437 16.2232 8.28177 18.9044 8.46906C21.3466 8.42477 23.7068 9.35587 25.4682 11.0585C27.2297 12.7612 28.2489 15.0967 28.3028 17.5538C28.5539 18.7959 28.5587 20.0757 28.3168 21.3196C28.0749 22.5635 27.5911 23.7471 26.8932 24.8023C26.1953 25.8576 25.297 26.7636 24.2501 27.4685C23.2031 28.1734 22.028 28.6632 20.7923 28.9098C20.4399 28.9513 20.1179 29.1303 19.8953 29.4083C19.6727 29.6863 19.5675 30.0411 19.6021 30.3964C19.6224 30.5704 19.6768 30.7387 19.7624 30.8914C19.8479 31.0441 19.9627 31.1782 20.1002 31.2858C20.2377 31.3934 20.3951 31.4724 20.5633 31.5182C20.7314 31.564 20.9069 31.5757 21.0796 31.5526C22.5116 31.3965 23.9028 30.9766 25.1837 30.3138C26.2145 31.4976 27.1608 32.7533 28.0155 34.0715L29.4109 36.384C29.8624 37.2099 30.3138 37.9945 30.7242 38.8204C31.7724 40.8013 32.6379 42.8747 33.3098 45.0146C33.3751 45.3705 33.5783 45.6857 33.8746 45.891C34.1709 46.0962 34.5361 46.1746 34.8899 46.1089C35.2436 46.0431 35.5569 45.8387 35.7609 45.5406C35.9649 45.2424 36.0428 44.875 35.9775 44.519C35.8323 42.0385 35.3914 39.5845 34.6641 37.2099C34.3757 36.1651 33.9767 35.1545 33.474 34.1954Z" fill="white"/>
<path d="M89.474 30.1954C88.9564 29.2034 88.3075 28.2865 87.545 27.47C86.4897 26.3538 85.3047 25.3694 84.0155 24.5381C85.4725 23.0632 86.594 21.2878 87.3026 19.3343C88.0111 17.3808 88.2899 15.2959 88.1196 13.2235C88.1196 11.4812 87.7772 9.75609 87.1121 8.14746C86.447 6.53883 85.4723 5.07843 84.244 3.8503C83.0158 2.62216 81.5583 1.65054 79.9555 0.991337C78.3526 0.332139 76.636 -0.00161663 74.9044 0.00927264C71.1786 -0.125784 67.5494 1.21892 64.8004 3.75306C62.0515 6.28721 60.4033 9.80747 60.2118 13.5538C60.1518 15.9403 60.7784 18.2933 62.0161 20.3299C63.2539 22.3665 65.0501 23.9999 67.1887 25.0336C65.4032 25.9829 63.7127 27.103 62.1407 28.3785C60.6313 29.6534 59.3296 31.1582 58.2828 32.8383C57.2906 34.2871 56.6007 35.9234 56.2551 37.6481C55.9094 39.3729 55.9151 41.1503 56.2718 42.8728C56.3227 43.2169 56.5063 43.527 56.7829 43.7357C57.0595 43.9444 57.4068 44.035 57.7493 43.9877C57.9227 43.9627 58.0893 43.9029 58.2394 43.8121C58.3895 43.7212 58.5201 43.6011 58.6233 43.4587C58.7266 43.3163 58.8005 43.1546 58.8407 42.9831C58.8809 42.8115 58.8866 42.6336 58.8574 42.4599C58.8733 40.4841 59.4734 38.5578 60.5811 36.9264C61.6112 35.3154 62.7932 33.8081 64.1107 32.4253C66.0082 30.2257 68.0222 28.1304 70.1437 26.1486C71.4208 26.4655 72.7277 26.6454 74.0426 26.6854C74.3515 26.6969 74.6528 26.5869 74.8826 26.3788C75.1124 26.1707 75.2527 25.8808 75.2738 25.5705C75.2909 25.4174 75.2763 25.2624 75.2308 25.1154C75.1854 24.9683 75.1102 24.8322 75.01 24.7158C74.9097 24.5994 74.7866 24.5052 74.6484 24.4391C74.5101 24.373 74.3597 24.3364 74.2067 24.3316C66.7373 23.6709 63.454 18.633 63.8234 13.7603C64.1238 11.0729 65.4442 8.60619 67.5089 6.87495C69.5737 5.1437 72.2232 4.28177 74.9044 4.46906C77.3466 4.42477 79.7068 5.35587 81.4682 7.05854C83.2297 8.76121 84.2489 11.0967 84.3028 13.5538C84.5539 14.7959 84.5587 16.0757 84.3168 17.3196C84.0749 18.5635 83.5911 19.7471 82.8932 20.8023C82.1953 21.8576 81.297 22.7636 80.2501 23.4685C79.2031 24.1734 78.028 24.6632 76.7923 24.9098C76.4399 24.9513 76.1179 25.1303 75.8953 25.4083C75.6727 25.6863 75.5675 26.0411 75.6021 26.3964C75.6224 26.5704 75.6768 26.7387 75.7624 26.8914C75.8479 27.0441 75.9627 27.1782 76.1002 27.2858C76.2377 27.3934 76.3951 27.4724 76.5633 27.5182C76.7314 27.564 76.9069 27.5757 77.0796 27.5526C78.5116 27.3965 79.9028 26.9766 81.1837 26.3138C82.2145 27.4976 83.1608 28.7533 84.0155 30.0715L85.4109 32.384C85.8624 33.2099 86.3138 33.9945 86.7242 34.8204C87.7724 36.8013 88.6379 38.8747 89.3098 41.0146C89.3751 41.3705 89.5783 41.6857 89.8746 41.891C90.1709 42.0962 90.5361 42.1746 90.8899 42.1089C91.2436 42.0431 91.5569 41.8387 91.7609 41.5406C91.9649 41.2424 92.0428 40.875 91.9775 40.519C91.8323 38.0385 91.3914 35.5845 90.6641 33.2099C90.3757 32.1651 89.9767 31.1545 89.474 30.1954Z" fill="white"/>
</svg>
