<svg width="59" height="84" viewBox="0 0 59 84" fill="none" xmlns="http://www.w3.org/2000/svg">
<path fill-rule="evenodd" clip-rule="evenodd" d="M2.41501 33.9812C5.14428 36.3543 5.55242 28.5618 19.8489 24.5606C34.1455 20.5594 37.7038 25.3649 42.6978 29.2279C43.0494 29.5336 43.508 29.6871 43.9728 29.6546C44.4375 29.6222 44.8704 29.4064 45.1761 29.0549C45.4818 28.7033 45.6353 28.2446 45.6028 27.7799C45.5704 27.3151 45.3546 26.8823 45.0031 26.5766C42.8477 24.1175 40.3687 21.9621 37.634 20.1693C33.6536 18.2308 29.2417 17.3478 24.8218 17.6051C20.4019 17.8624 16.1223 19.2513 12.3936 21.6385C8.32413 24.337 4.84318 27.8315 2.16063 31.9115C1.94893 32.23 1.8582 32.6138 1.90485 32.9934C1.95151 33.3731 2.13247 33.7234 2.41501 33.9812Z" fill="#7D5FFF"/>
<path fill-rule="evenodd" clip-rule="evenodd" d="M46.3439 29.5227L45.5082 29.6176C38.5922 32.8472 35.9478 32.7388 35.2359 33.5576C35.1019 33.7502 35.0133 33.9708 34.9769 34.2026C34.9404 34.4344 34.9572 34.6715 35.0257 34.896C35.0943 35.1204 35.2129 35.3264 35.3727 35.4983C35.5325 35.6702 35.7292 35.8036 35.948 35.8884C39.7168 35.8525 43.4773 35.5288 47.1968 34.9199C49.6395 34.2366 52.5398 33.8144 52.2922 30.792C52.1933 29.1205 51.8811 27.4685 51.363 25.8762C50.9409 24.5506 46.7602 15.0276 46.4093 14.7225C46.076 14.5551 45.7029 14.4835 45.3313 14.5156C44.9598 14.5478 44.6044 14.6824 44.3049 14.9045C44.0053 15.1266 43.7732 15.4275 43.6345 15.7737C43.4958 16.1199 43.4559 16.4977 43.5192 16.8653C44.0025 20.6403 45.8199 25.1645 46.3439 29.5227Z" fill="#7D5FFF"/>
<path fill-rule="evenodd" clip-rule="evenodd" d="M56.041 49.9669C53.3118 47.5938 52.9036 55.3863 38.6071 59.3875C24.3106 63.3887 20.7523 58.5832 15.7582 54.7202C15.4067 54.4145 14.948 54.261 14.4833 54.2935C14.0185 54.3259 13.5857 54.5417 13.28 54.8933C12.9743 55.2448 12.8208 55.7035 12.8532 56.1682C12.8857 56.633 13.1014 57.0658 13.453 57.3715C15.6084 59.8306 18.0873 61.986 20.822 63.7788C24.8025 65.7173 29.2143 66.6003 33.6342 66.343C38.0541 66.0857 42.3338 64.6968 46.0624 62.3096C50.1319 59.6111 53.6129 56.1166 56.2954 52.0366C56.5071 51.7181 56.5979 51.3343 56.5512 50.9547C56.5045 50.575 56.3236 50.2247 56.041 49.9669Z" fill="#7D5FFF"/>
<path fill-rule="evenodd" clip-rule="evenodd" d="M12.1122 54.4254L12.9478 54.3305C19.8638 51.1009 22.5082 51.2093 23.2201 50.3905C23.3542 50.1979 23.4428 49.9773 23.4792 49.7455C23.5156 49.5137 23.4989 49.2766 23.4303 49.0521C23.3618 48.8277 23.2431 48.6217 23.0834 48.4498C22.9236 48.2779 22.7269 48.1445 22.5081 48.0597C18.7393 48.0956 14.9787 48.4193 11.2592 49.0282C8.81659 49.7115 5.91625 50.1337 6.16388 53.1561C6.26271 54.8276 6.57497 56.4796 7.09305 58.0719C7.5152 59.3975 11.6958 68.9205 12.0467 69.2256C12.38 69.393 12.7532 69.4646 13.1247 69.4325C13.4963 69.4003 13.8516 69.2657 14.1512 69.0436C14.4508 68.8215 14.6828 68.5206 14.8215 68.1744C14.9602 67.8282 15.0001 67.4504 14.9368 67.0828C14.4535 63.3078 12.6362 58.7836 12.1122 54.4254Z" fill="#7D5FFF"/>
</svg>
